<?xml version="1.0" encoding="UTF-8" standalone="no"?>
<!-- Created with Inkscape (http://www.inkscape.org/) -->

<svg
   xmlns:dc="http://purl.org/dc/elements/1.1/"
   xmlns:cc="http://creativecommons.org/ns#"
   xmlns:rdf="http://www.w3.org/1999/02/22-rdf-syntax-ns#"
   xmlns:svg="http://www.w3.org/2000/svg"
   xmlns="http://www.w3.org/2000/svg"
   xmlns:sodipodi="http://sodipodi.sourceforge.net/DTD/sodipodi-0.dtd"
   xmlns:inkscape="http://www.inkscape.org/namespaces/inkscape"
   width="91.28125mm"
   height="91.28125mm"
   viewBox="0 0 91.28125 91.28125"
   version="1.1"
   id="svg8"
   inkscape:version="0.92.2 5c3e80d, 2017-08-06"
   sodipodi:docname="icon.svg">
  <defs
     id="defs2" />
  <sodipodi:namedview
     id="base"
     pagecolor="#ffffff"
     bordercolor="#666666"
     borderopacity="1.0"
     inkscape:pageopacity="0.0"
     inkscape:pageshadow="2"
     inkscape:zoom="0.70710678"
     inkscape:cx="96.141898"
     inkscape:cy="167.38502"
     inkscape:document-units="mm"
     inkscape:current-layer="layer1"
     showgrid="false"
     showborder="true"
     inkscape:snap-intersection-paths="true"
     inkscape:snap-smooth-nodes="true"
     inkscape:snap-midpoints="false"
     inkscape:snap-global="false"
     inkscape:window-width="1360"
     inkscape:window-height="768"
     inkscape:window-x="0"
     inkscape:window-y="0"
     inkscape:window-maximized="0"
     fit-margin-top="0"
     fit-margin-left="0"
     fit-margin-right="0"
     fit-margin-bottom="0" />
  <metadata
     id="metadata5">
    <rdf:RDF>
      <cc:Work
         rdf:about="">
        <dc:format>image/svg+xml</dc:format>
        <dc:type
           rdf:resource="http://purl.org/dc/dcmitype/StillImage" />
        <dc:title></dc:title>
      </cc:Work>
    </rdf:RDF>
  </metadata>
  <g
     inkscape:label="Layer 1"
     inkscape:groupmode="layer"
     id="layer1"
     transform="translate(-59.60915,-25.474164)">
    <g
       id="g975"
       transform="translate(-337.60833,-72.495833)">
      <path
         inkscape:connector-curvature="0"
         id="path894"
         d="M 264.05511,40.608379 243.58945,20.883926"
         style="fill:none;stroke:#c83737;stroke-width:1.5;stroke-linecap:round;stroke-linejoin:round;stroke-miterlimit:4;stroke-dasharray:none;stroke-opacity:1" />
      <path
         inkscape:connector-curvature="0"
         id="path896"
         d="M 304.98642,40.608379 325.45205,20.883926"
         style="fill:none;stroke:#c83737;stroke-width:1.5;stroke-linecap:round;stroke-linejoin:round;stroke-miterlimit:4;stroke-dasharray:none;stroke-opacity:1" />
      <path
         inkscape:connector-curvature="0"
         id="path892"
         d="m 243.58945,60.332834 40.93132,-39.448908 40.93132,39.448908"
         style="fill:none;stroke:#c83737;stroke-width:1.50000012;stroke-linecap:square;stroke-linejoin:round;stroke-miterlimit:4;stroke-dasharray:none;stroke-opacity:1" />
      <path
         inkscape:connector-curvature="0"
         id="path884"
         d="m 243.58945,20.883926 h 81.86262"
         style="fill:none;stroke:#c83737;stroke-width:1.5;stroke-linecap:square;stroke-linejoin:round;stroke-miterlimit:4;stroke-dasharray:none;stroke-opacity:1" />
    </g>
    <g
       id="g876"
       transform="matrix(1,0,0,1.1745503,-337.60833,-90.625879)"
       style="stroke-width:0.92270774">
      <rect
         y="20.051426"
         x="233.11247"
         height="83.815727"
         width="10.476966"
         id="rect817"
         style="opacity:1;fill:#ffeeaa;fill-opacity:1;stroke:none;stroke-width:0.61360061;stroke-linecap:round;stroke-linejoin:round;stroke-miterlimit:4;stroke-dasharray:none;stroke-dashoffset:0;stroke-opacity:1" />
      <rect
         style="opacity:1;fill:#c83737;fill-opacity:1;stroke:none;stroke-width:0.61360061;stroke-linecap:round;stroke-linejoin:round;stroke-miterlimit:4;stroke-dasharray:none;stroke-dashoffset:0;stroke-opacity:1"
         id="rect821"
         width="10.476966"
         height="15.341274"
         x="233.11247"
         y="88.525887" />
    </g>
    <g
       id="g904"
       transform="translate(-340.32077,-70.840072)">
      <path
         inkscape:connector-curvature="0"
         id="path827"
         d="m 230.12124,4.3656611 h 22.11102"
         style="fill:none;stroke:#c83737;stroke-width:1.20000005;stroke-linecap:round;stroke-linejoin:round;stroke-miterlimit:4;stroke-dasharray:none;stroke-opacity:1" />
      <path
         sodipodi:type="spiral"
         style="fill:none;fill-rule:evenodd;stroke:#c83737;stroke-width:2.36592937;stroke-linecap:round;stroke-linejoin:round;stroke-miterlimit:4;stroke-dasharray:none;stroke-opacity:1"
         id="path829"
         sodipodi:cx="220.95171"
         sodipodi:cy="26.843962"
         sodipodi:expansion="0.66000003"
         sodipodi:revolution="2"
         sodipodi:radius="10.219906"
         sodipodi:argument="-19.896753"
         sodipodi:t0="0"
         d="m 220.95171,26.843962 c 0.90797,-1.572653 2.40063,0.05362 2.24356,1.295321 -0.25201,1.992229 -2.5744,2.811708 -4.29028,2.249692 -2.54573,-0.833824 -3.54364,-3.852792 -2.58603,-6.219729 1.23684,-3.057096 4.94695,-4.226879 7.86673,-2.926698 3.53341,1.573437 4.86476,5.929663 3.25622,9.348536 -1.87312,3.981215 -6.83531,5.465482 -10.71648,3.572993 -4.40571,-2.148262 -6.03567,-7.683227 -3.87779,-11.999 2.40542,-4.810835 8.48564,-6.580371 13.21402,-4.171813"
         transform="matrix(-0.44041466,-0.25263455,-0.2545694,0.43808505,356.37366,53.594067)" />
      <path
         transform="matrix(0.44041466,-0.25263455,0.2545694,0.43808505,125.75313,53.594067)"
         d="m 220.95171,26.843962 c 0.90797,-1.572653 2.40063,0.05362 2.24356,1.295321 -0.25201,1.992229 -2.5744,2.811708 -4.29028,2.249692 -2.54573,-0.833824 -3.54364,-3.852792 -2.58603,-6.219729 1.23684,-3.057096 4.94695,-4.226879 7.86673,-2.926698 3.53341,1.573437 4.86476,5.929663 3.25622,9.348536 -1.87312,3.981215 -6.83531,5.465482 -10.71648,3.572993 -4.40571,-2.148262 -6.03567,-7.683227 -3.87779,-11.999 2.40542,-4.810835 8.48564,-6.580371 13.21402,-4.171813"
         sodipodi:t0="0"
         sodipodi:argument="-19.896753"
         sodipodi:radius="10.219906"
         sodipodi:revolution="2"
         sodipodi:expansion="0.66000003"
         sodipodi:cy="26.843962"
         sodipodi:cx="220.95171"
         id="path839"
         style="fill:none;fill-rule:evenodd;stroke:#c83737;stroke-width:2.36592937;stroke-linecap:round;stroke-linejoin:round;stroke-miterlimit:4;stroke-dasharray:none;stroke-opacity:1"
         sodipodi:type="spiral" />
    </g>
    <rect
       y="-67.074471"
       x="-12.156278"
       height="98.445786"
       width="10.476966"
       id="rect878"
       style="opacity:1;fill:#ffeeaa;fill-opacity:1;stroke:none;stroke-width:0.6649999;stroke-linecap:round;stroke-linejoin:round;stroke-miterlimit:4;stroke-dasharray:none;stroke-dashoffset:0;stroke-opacity:1" />
    <rect
       style="opacity:1;fill:#c83737;fill-opacity:1;stroke:none;stroke-width:0.6649999;stroke-linecap:round;stroke-linejoin:round;stroke-miterlimit:4;stroke-dasharray:none;stroke-dashoffset:0;stroke-opacity:1"
       id="rect880"
       width="10.476966"
       height="18.019098"
       x="-12.156278"
       y="13.352227" />
    <g
       transform="translate(-247.98119,-70.840072)"
       id="g912">
      <path
         style="fill:none;stroke:#c83737;stroke-width:1.20000005;stroke-linecap:round;stroke-linejoin:round;stroke-miterlimit:4;stroke-dasharray:none;stroke-opacity:1"
         d="m 230.12124,4.3656611 h 22.11102"
         id="path906"
         inkscape:connector-curvature="0" />
      <path
         transform="matrix(-0.44041466,-0.25263455,-0.2545694,0.43808505,356.37366,53.594067)"
         d="m 220.95171,26.843962 c 0.90797,-1.572653 2.40063,0.05362 2.24356,1.295321 -0.25201,1.992229 -2.5744,2.811708 -4.29028,2.249692 -2.54573,-0.833824 -3.54364,-3.852792 -2.58603,-6.219729 1.23684,-3.057096 4.94695,-4.226879 7.86673,-2.926698 3.53341,1.573437 4.86476,5.929663 3.25622,9.348536 -1.87312,3.981215 -6.83531,5.465482 -10.71648,3.572993 -4.40571,-2.148262 -6.03567,-7.683227 -3.87779,-11.999 2.40542,-4.810835 8.48564,-6.580371 13.21402,-4.171813"
         sodipodi:t0="0"
         sodipodi:argument="-19.896753"
         sodipodi:radius="10.219906"
         sodipodi:revolution="2"
         sodipodi:expansion="0.66000003"
         sodipodi:cy="26.843962"
         sodipodi:cx="220.95171"
         id="path908"
         style="fill:none;fill-rule:evenodd;stroke:#c83737;stroke-width:2.36592937;stroke-linecap:round;stroke-linejoin:round;stroke-miterlimit:4;stroke-dasharray:none;stroke-opacity:1"
         sodipodi:type="spiral" />
      <path
         sodipodi:type="spiral"
         style="fill:none;fill-rule:evenodd;stroke:#c83737;stroke-width:2.36592937;stroke-linecap:round;stroke-linejoin:round;stroke-miterlimit:4;stroke-dasharray:none;stroke-opacity:1"
         id="path910"
         sodipodi:cx="220.95171"
         sodipodi:cy="26.843962"
         sodipodi:expansion="0.66000003"
         sodipodi:revolution="2"
         sodipodi:radius="10.219906"
         sodipodi:argument="-19.896753"
         sodipodi:t0="0"
         d="m 220.95171,26.843962 c 0.90797,-1.572653 2.40063,0.05362 2.24356,1.295321 -0.25201,1.992229 -2.5744,2.811708 -4.29028,2.249692 -2.54573,-0.833824 -3.54364,-3.852792 -2.58603,-6.219729 1.23684,-3.057096 4.94695,-4.226879 7.86673,-2.926698 3.53341,1.573437 4.86476,5.929663 3.25622,9.348536 -1.87312,3.981215 -6.83531,5.465482 -10.71648,3.572993 -4.40571,-2.148262 -6.03567,-7.683227 -3.87779,-11.999 2.40542,-4.810835 8.48564,-6.580371 13.21402,-4.171813"
         transform="matrix(0.44041466,-0.25263455,0.2545694,0.43808505,125.75313,53.594067)" />
    </g>
    <g
       id="g1203"
       transform="translate(-0.19345702,-1.0185651)">
      <g
         id="g1076"
         transform="matrix(0.66304977,0,0,0.66304977,-83.208184,35.901489)">
        <g
           id="g1046">
          <path
             style="fill:none;stroke:#c83737;stroke-width:1.5;stroke-linecap:round;stroke-linejoin:round;stroke-miterlimit:4;stroke-dasharray:none;stroke-opacity:1"
             d="M 264.05511,40.608379 243.58945,20.883926"
             id="path1038"
             inkscape:connector-curvature="0" />
          <path
             style="fill:none;stroke:#c83737;stroke-width:1.5;stroke-linecap:round;stroke-linejoin:round;stroke-miterlimit:4;stroke-dasharray:none;stroke-opacity:1"
             d="M 304.98642,40.608379 325.45205,20.883926"
             id="path1040"
             inkscape:connector-curvature="0" />
          <path
             style="fill:none;stroke:#c83737;stroke-width:1.50000012;stroke-linecap:square;stroke-linejoin:round;stroke-miterlimit:4;stroke-dasharray:none;stroke-opacity:1"
             d="m 243.58945,60.332834 40.93132,-39.448908 40.93132,39.448908"
             id="path1042"
             inkscape:connector-curvature="0" />
          <path
             style="fill:none;stroke:#c83737;stroke-width:1.5;stroke-linecap:square;stroke-linejoin:round;stroke-miterlimit:4;stroke-dasharray:none;stroke-opacity:1"
             d="m 243.58945,20.883926 h 81.86262"
             id="path1044"
             inkscape:connector-curvature="0" />
        </g>
        <g
           style="stroke-width:0.92270774"
           transform="matrix(1,0,0,1.1745503,0,-18.130046)"
           id="g1052">
          <rect
             style="opacity:1;fill:#ffeeaa;fill-opacity:1;stroke:none;stroke-width:0.61360061;stroke-linecap:round;stroke-linejoin:round;stroke-miterlimit:4;stroke-dasharray:none;stroke-dashoffset:0;stroke-opacity:1"
             id="rect1048"
             width="10.476966"
             height="83.815727"
             x="233.11247"
             y="20.051426" />
          <rect
             y="88.525887"
             x="233.11247"
             height="15.341274"
             width="10.476966"
             id="rect1050"
             style="opacity:1;fill:#c83737;fill-opacity:1;stroke:none;stroke-width:0.61360061;stroke-linecap:round;stroke-linejoin:round;stroke-miterlimit:4;stroke-dasharray:none;stroke-dashoffset:0;stroke-opacity:1" />
        </g>
        <g
           transform="translate(-2.7124395,1.6557613)"
           id="g1060">
          <path
             style="fill:none;stroke:#c83737;stroke-width:1.20000005;stroke-linecap:round;stroke-linejoin:round;stroke-miterlimit:4;stroke-dasharray:none;stroke-opacity:1"
             d="m 230.12124,4.3656611 h 22.11102"
             id="path1054"
             inkscape:connector-curvature="0" />
          <path
             transform="matrix(-0.44041466,-0.25263455,-0.2545694,0.43808505,356.37366,53.594067)"
             d="m 220.95171,26.843962 c 0.90797,-1.572653 2.40063,0.05362 2.24356,1.295321 -0.25201,1.992229 -2.5744,2.811708 -4.29028,2.249692 -2.54573,-0.833824 -3.54364,-3.852792 -2.58603,-6.219729 1.23684,-3.057096 4.94695,-4.226879 7.86673,-2.926698 3.53341,1.573437 4.86476,5.929663 3.25622,9.348536 -1.87312,3.981215 -6.83531,5.465482 -10.71648,3.572993 -4.40571,-2.148262 -6.03567,-7.683227 -3.87779,-11.999 2.40542,-4.810835 8.48564,-6.580371 13.21402,-4.171813"
             sodipodi:t0="0"
             sodipodi:argument="-19.896753"
             sodipodi:radius="10.219906"
             sodipodi:revolution="2"
             sodipodi:expansion="0.66000003"
             sodipodi:cy="26.843962"
             sodipodi:cx="220.95171"
             id="path1056"
             style="fill:none;fill-rule:evenodd;stroke:#c83737;stroke-width:2.36592937;stroke-linecap:round;stroke-linejoin:round;stroke-miterlimit:4;stroke-dasharray:none;stroke-opacity:1"
             sodipodi:type="spiral" />
          <path
             sodipodi:type="spiral"
             style="fill:none;fill-rule:evenodd;stroke:#c83737;stroke-width:2.36592937;stroke-linecap:round;stroke-linejoin:round;stroke-miterlimit:4;stroke-dasharray:none;stroke-opacity:1"
             id="path1058"
             sodipodi:cx="220.95171"
             sodipodi:cy="26.843962"
             sodipodi:expansion="0.66000003"
             sodipodi:revolution="2"
             sodipodi:radius="10.219906"
             sodipodi:argument="-19.896753"
             sodipodi:t0="0"
             d="m 220.95171,26.843962 c 0.90797,-1.572653 2.40063,0.05362 2.24356,1.295321 -0.25201,1.992229 -2.5744,2.811708 -4.29028,2.249692 -2.54573,-0.833824 -3.54364,-3.852792 -2.58603,-6.219729 1.23684,-3.057096 4.94695,-4.226879 7.86673,-2.926698 3.53341,1.573437 4.86476,5.929663 3.25622,9.348536 -1.87312,3.981215 -6.83531,5.465482 -10.71648,3.572993 -4.40571,-2.148262 -6.03567,-7.683227 -3.87779,-11.999 2.40542,-4.810835 8.48564,-6.580371 13.21402,-4.171813"
             transform="matrix(0.44041466,-0.25263455,0.2545694,0.43808505,125.75313,53.594067)" />
        </g>
        <g
           style="stroke-width:0.92270774"
           transform="matrix(1,0,0,1.1745503,92.339584,-18.130046)"
           id="g1066">
          <rect
             y="20.051426"
             x="233.11247"
             height="83.815727"
             width="10.476966"
             id="rect1062"
             style="opacity:1;fill:#ffeeaa;fill-opacity:1;stroke:none;stroke-width:0.61360061;stroke-linecap:round;stroke-linejoin:round;stroke-miterlimit:4;stroke-dasharray:none;stroke-dashoffset:0;stroke-opacity:1" />
          <rect
             style="opacity:1;fill:#c83737;fill-opacity:1;stroke:none;stroke-width:0.61360061;stroke-linecap:round;stroke-linejoin:round;stroke-miterlimit:4;stroke-dasharray:none;stroke-dashoffset:0;stroke-opacity:1"
             id="rect1064"
             width="10.476966"
             height="15.341274"
             x="233.11247"
             y="88.525887" />
        </g>
        <g
           id="g1074"
           transform="translate(89.627144,1.6557613)">
          <path
             inkscape:connector-curvature="0"
             id="path1068"
             d="m 230.12124,4.3656611 h 22.11102"
             style="fill:none;stroke:#c83737;stroke-width:1.20000005;stroke-linecap:round;stroke-linejoin:round;stroke-miterlimit:4;stroke-dasharray:none;stroke-opacity:1" />
          <path
             sodipodi:type="spiral"
             style="fill:none;fill-rule:evenodd;stroke:#c83737;stroke-width:2.36592937;stroke-linecap:round;stroke-linejoin:round;stroke-miterlimit:4;stroke-dasharray:none;stroke-opacity:1"
             id="path1070"
             sodipodi:cx="220.95171"
             sodipodi:cy="26.843962"
             sodipodi:expansion="0.66000003"
             sodipodi:revolution="2"
             sodipodi:radius="10.219906"
             sodipodi:argument="-19.896753"
             sodipodi:t0="0"
             d="m 220.95171,26.843962 c 0.90797,-1.572653 2.40063,0.05362 2.24356,1.295321 -0.25201,1.992229 -2.5744,2.811708 -4.29028,2.249692 -2.54573,-0.833824 -3.54364,-3.852792 -2.58603,-6.219729 1.23684,-3.057096 4.94695,-4.226879 7.86673,-2.926698 3.53341,1.573437 4.86476,5.929663 3.25622,9.348536 -1.87312,3.981215 -6.83531,5.465482 -10.71648,3.572993 -4.40571,-2.148262 -6.03567,-7.683227 -3.87779,-11.999 2.40542,-4.810835 8.48564,-6.580371 13.21402,-4.171813"
             transform="matrix(-0.44041466,-0.25263455,-0.2545694,0.43808505,356.37366,53.594067)" />
          <path
             transform="matrix(0.44041466,-0.25263455,0.2545694,0.43808505,125.75313,53.594067)"
             d="m 220.95171,26.843962 c 0.90797,-1.572653 2.40063,0.05362 2.24356,1.295321 -0.25201,1.992229 -2.5744,2.811708 -4.29028,2.249692 -2.54573,-0.833824 -3.54364,-3.852792 -2.58603,-6.219729 1.23684,-3.057096 4.94695,-4.226879 7.86673,-2.926698 3.53341,1.573437 4.86476,5.929663 3.25622,9.348536 -1.87312,3.981215 -6.83531,5.465482 -10.71648,3.572993 -4.40571,-2.148262 -6.03567,-7.683227 -3.87779,-11.999 2.40542,-4.810835 8.48564,-6.580371 13.21402,-4.171813"
             sodipodi:t0="0"
             sodipodi:argument="-19.896753"
             sodipodi:radius="10.219906"
             sodipodi:revolution="2"
             sodipodi:expansion="0.66000003"
             sodipodi:cy="26.843962"
             sodipodi:cx="220.95171"
             id="path1072"
             style="fill:none;fill-rule:evenodd;stroke:#c83737;stroke-width:2.36592937;stroke-linecap:round;stroke-linejoin:round;stroke-miterlimit:4;stroke-dasharray:none;stroke-opacity:1"
             sodipodi:type="spiral" />
        </g>
      </g>
      <path
         inkscape:connector-curvature="0"
         id="path1159"
         d="m 93.142785,104.70538 c -0.60706,-0.15225 -0.97703,-0.39505 -1.33993,-0.87933 -0.42087,-0.56166 -0.45805,-0.79226 -0.45805,-2.84113 v -1.791965 h -1.36989 -1.36989 V 94.48156 c 0,-5.216836 -0.001,-5.199582 0.36748,-5.990852 0.10235,-0.219753 0.28629,-0.531305 0.40875,-0.692338 0.50934,-0.669786 1.39583,-1.269205 2.02608,-1.369986 0.1187,-0.01898 0.22785,-0.06359 0.24256,-0.09913 0.0147,-0.03554 0.67181,-1.732651 1.46021,-3.77136 0.78841,-2.038709 1.52716,-3.875214 1.64167,-4.081124 0.32219,-0.57937 0.91567,-1.138115 1.50179,-1.413898 0.86948,-0.409111 0.35567,-0.387448 9.189675,-0.387448 8.83213,0 8.31908,-0.02159 9.18966,0.386707 0.39243,0.184049 0.567,0.311011 0.91326,0.664212 0.27019,0.275607 0.50463,0.583388 0.63561,0.834448 0.11414,0.218778 0.84324,2.041644 1.62022,4.050812 0.77698,2.009169 1.43581,3.682454 1.46406,3.718411 0.0282,0.03596 0.14677,0.08263 0.26338,0.103717 0.33863,0.06124 0.993,0.410366 1.37279,0.732441 0.43732,0.37086 0.77105,0.807764 1.01174,1.324533 0.36854,0.79127 0.36748,0.774016 0.36748,5.990852 v 4.711395 h -1.36989 -1.36989 v 1.791968 c 0,1.63553 -0.01,1.82449 -0.11508,2.16457 -0.61437,1.98907 -3.43619,2.20209 -4.39052,0.33143 -0.24129,-0.47296 -0.28695,-0.89261 -0.28801,-2.64696 l -9.9e-4,-1.641008 h -9.30382 -9.303825 v 1.644798 c 0,0.94159 -0.0266,1.78846 -0.0621,1.98082 -0.12502,0.67627 -0.6336,1.397 -1.1839,1.67774 -0.51649,0.2635 -1.2055,0.34578 -1.75061,0.20907 z m 1.08157,-10.819925 c 1.38643,-0.227032 2.31151,-1.64201 2.00831,-3.071868 -0.42452,-2.002065 -2.88156,-2.699201 -4.22945,-1.200024 -0.4688,0.521423 -0.66742,1.047506 -0.66742,1.767787 0,1.138125 0.75375,2.169477 1.77845,2.433417 0.54562,0.140542 0.64492,0.146864 1.11011,0.07069 z m 23.393795,-0.02797 c 0.98518,-0.208752 1.75727,-1.050409 1.92148,-2.094621 0.1757,-1.117299 -0.4263,-2.260959 -1.44032,-2.736247 -0.38698,-0.181381 -0.45006,-0.193439 -1.01203,-0.193439 -0.56197,0 -0.62505,0.01206 -1.01202,0.193439 -1.01402,0.475288 -1.61603,1.618948 -1.44033,2.736247 0.16177,1.028657 0.93626,1.883899 1.89448,2.092006 0.46639,0.101292 0.62129,0.101664 1.08874,0.0026 z m -0.9875,-7.587245 c 0,-0.112263 -2.13759,-5.866677 -2.33441,-6.284253 -0.20646,-0.438014 -0.51291,-0.73853 -0.90132,-0.883853 -0.30258,-0.113209 -0.42801,-0.115023 -7.95168,-0.115023 -7.492265,0 -7.650305,0.0023 -7.947915,0.113611 -0.37638,0.140819 -0.72959,0.490741 -0.92242,0.913805 -0.19653,0.431206 -2.31709,6.156312 -2.31709,6.255713 0,0.06837 1.62912,0.08002 11.187425,0.08002 9.55829,0 11.18741,-0.01165 11.18741,-0.08002 z"
         style="fill:#68a9ff;fill-opacity:1;stroke-width:0.05707865" />
    </g>
  </g>
</svg>
